<?xml version="1.0" encoding="UTF-8"?>
<svg version="1.1" xmlns="http://www.w3.org/2000/svg" width="1487" height="293">
<path d="M0 0 C2.22265625 0.75390625 2.22265625 0.75390625 4.22265625 1.75390625 C4.22265625 5.38390625 4.22265625 9.01390625 4.22265625 12.75390625 C5.39699219 13.03363281 6.57132813 13.31335937 7.78125 13.6015625 C32.86989634 19.76741626 58.25737559 30.2930727 72.72265625 53.12109375 C79.30953691 65.39307974 80.8496432 77.50761735 77.1875 90.83984375 C72.05505719 106.34106779 59.13915924 116.72696569 45.03125 123.953125 C36.98929885 127.91054743 28.836496 131.2311632 20.22265625 133.75390625 C24.24878869 147.78436777 38.1915559 158.05883964 49.22265625 166.75390625 C49.91278809 167.29917969 50.60291992 167.84445313 51.31396484 168.40625 C59.78748619 175.08711997 68.24621385 181.7545754 77.22265625 187.75390625 C76.91328125 186.57828125 76.60390625 185.40265625 76.28515625 184.19140625 C69.70606899 153.75721124 79.4604135 115.5042286 95.02734375 89.0546875 C104.2430462 75.19833774 116.3879059 65.0054868 132.83203125 61.140625 C143.50793123 59.41364118 154.27552811 61.55197409 163.16015625 67.87890625 C170.57696349 74.2478343 175.38414202 83.71991825 176.54052734 93.42041016 C176.69766436 96.33075038 176.74130122 99.21439067 176.72265625 102.12890625 C176.71693604 103.17602783 176.71121582 104.22314941 176.70532227 105.30200195 C176.33953333 121.51371852 172.01856285 138.5335807 160.84765625 150.81640625 C154.20628773 156.85810267 145.84059042 159.09361203 137.05859375 158.96484375 C127.17291901 158.22954563 118.82149566 154.46497252 110.22265625 149.75390625 C106.45546837 171.48514944 106.45546837 171.48514944 112.65234375 192.01953125 C115.54866575 195.56428355 117.57316157 197.45237794 122.31640625 197.9921875 C134.93494538 198.38139569 145.15810633 192.56413848 154.28515625 184.25390625 C162.72059933 175.41437009 167.27336968 164.43463331 170.22265625 152.75390625 C171.78602798 153.20925724 173.34831474 153.66833401 174.91015625 154.12890625 C175.78027344 154.38414062 176.65039062 154.639375 177.546875 154.90234375 C180.16534329 155.7356665 182.67761853 156.72097519 185.22265625 157.75390625 C187.67340635 143.84295563 189.81890781 129.90297532 191.765625 115.9140625 C191.92738409 114.7528998 191.92738409 114.7528998 192.09241104 113.56827927 C192.98429435 107.15846244 193.86899231 100.74765797 194.75152588 94.33654785 C195.41781704 89.49689535 196.08733747 84.65771435 196.76171303 79.81918144 C197.07353766 77.57211969 197.38047877 75.32442473 197.68730164 73.07667542 C197.87615311 71.71913076 198.06525123 70.36162038 198.25463867 69.00415039 C198.41800217 67.81745255 198.58136566 66.6307547 198.74967957 65.40809631 C199.22265625 62.75390625 199.22265625 62.75390625 200.22265625 61.75390625 C209.83818807 60.99974689 219.2671902 61.39397715 227.16015625 67.44140625 C230.68044379 70.73752454 231.8817011 74.17888279 233.22265625 78.75390625 C234.17140625 77.86703125 235.12015625 76.98015625 236.09765625 76.06640625 C244.55318762 68.84077036 254.57613738 65.21955966 265.6484375 65.5078125 C277.22192628 66.614231 286.06105462 72.5184914 293.4375 81.2734375 C305.86118616 98.53610864 305.71308098 121.21677269 302.77124023 141.35351562 C298.70053856 166.20013601 289.01735045 200.06955186 267.63671875 215.63671875 C258.50670141 221.31213494 250.2876883 223.16945022 239.57421875 221.2890625 C231.17450887 219.05002311 223.76130968 214.42073922 217.22265625 208.75390625 C215.87490981 213.26570309 214.78996859 217.68467097 213.98583984 222.33178711 C213.65572403 224.22295509 213.65572403 224.22295509 213.31893921 226.15232849 C213.08624215 227.50778827 212.85362892 228.86326244 212.62109375 230.21875 C212.37766056 231.62127841 212.13389099 233.02374847 211.88980103 234.42616272 C211.25189758 238.09652257 210.61853347 241.76765133 209.98614502 245.43896484 C209.33858101 249.19351348 208.68668068 252.94730884 208.03515625 256.70117188 C206.76010277 264.05135721 205.48984892 271.40236115 204.22265625 278.75390625 C202.62864875 278.61065566 201.0350558 278.4627876 199.44165039 278.31298828 C198.11043907 278.19022018 198.11043907 278.19022018 196.75233459 278.06497192 C187.61935373 276.9419213 178.63917634 272.31725746 172.22265625 265.75390625 C170.08118336 262.41280016 170.12297399 260.32170422 170.74584961 256.45043945 C170.99116676 254.8640844 170.99116676 254.8640844 171.24143982 253.24568176 C171.42988968 252.11015366 171.61833954 250.97462555 171.8125 249.8046875 C171.99526993 248.63632858 172.17803986 247.46796967 172.36634827 246.26420593 C172.95227717 242.52958972 173.55522306 238.79798737 174.16015625 235.06640625 C174.7590424 231.32378723 175.35430139 227.58066703 175.94325256 223.83647156 C176.31077352 221.50506496 176.68454005 219.17463327 177.06492615 216.84529114 C177.23162308 215.79717758 177.39832001 214.74906403 177.57006836 213.66918945 C177.72044052 212.74193558 177.87081268 211.8146817 178.02574158 210.85932922 C178.09072342 210.16453964 178.15570526 209.46975006 178.22265625 208.75390625 C177.89265625 208.42390625 177.56265625 208.09390625 177.22265625 207.75390625 C176.5265625 208.4809375 176.5265625 208.4809375 175.81640625 209.22265625 C163.49039481 221.18072705 148.87015842 226.16073304 132.01489258 226.05078125 C115.75143166 225.64742994 101.61924847 219.04195909 90.2734375 207.44140625 C88.15050235 205.33030767 88.15050235 205.33030767 84.22265625 205.75390625 C82.3002593 207.34598422 80.59555051 208.92605923 78.84765625 210.69140625 C74.44145837 214.92880019 69.91380918 218.60921139 64.78515625 221.94140625 C64.20652832 222.3273999 63.62790039 222.71339355 63.03173828 223.11108398 C60.64986286 224.61489809 58.45122599 225.69809684 55.7109375 226.3671875 C51.73612019 225.38752295 49.58601167 222.68139011 46.84765625 219.75390625 C46.27257324 219.15884277 45.69749023 218.5637793 45.10498047 217.95068359 C41.54138489 214.23789081 38.0934644 210.43431585 34.76171875 206.51171875 C33.15325075 204.67463601 31.46426757 202.96482838 29.72265625 201.25390625 C27.42939589 198.99592682 25.25837597 196.69394121 23.16015625 194.25390625 C19.6243161 190.14880385 15.92934948 186.20390715 12.22265625 182.25390625 C8.090129 177.84723627 4.00202628 173.42482763 0.0625 168.84375 C-3.03086131 165.33005934 -6.23530349 161.91828682 -9.42163086 158.48901367 C-12.16857832 155.52454676 -14.86201129 152.53462743 -17.46484375 149.44140625 C-18.60953125 148.11109375 -18.60953125 148.11109375 -19.77734375 146.75390625 C-20.10734375 146.75390625 -20.43734375 146.75390625 -20.77734375 146.75390625 C-22.0496121 154.3173767 -23.31909952 161.88130971 -24.58523369 169.44580936 C-25.17350971 172.95994473 -25.76267061 176.47392652 -26.35400391 179.98754883 C-26.92680565 183.39127332 -27.49708714 186.79541207 -28.0657692 190.19982719 C-28.38419985 192.10233606 -28.7051048 194.00443029 -29.02609253 195.9065094 C-30.2780148 203.39853847 -30.2780148 203.39853847 -31.26470947 210.92843628 C-31.34489885 211.61573791 -31.42508823 212.30303953 -31.5077076 213.01116848 C-31.72687117 214.93625862 -31.92924352 216.86323866 -32.13064575 218.79026794 C-32.77734375 221.75390625 -32.77734375 221.75390625 -35.77734375 223.75390625 C-38.80108361 224.18946417 -41.85056854 224.08495547 -44.90234375 224.06640625 C-46.22758057 224.06338501 -46.22758057 224.06338501 -47.57958984 224.06030273 C-56.1474224 223.93229879 -66.96917173 223.65799226 -74.77734375 219.75390625 C-74.20223637 210.33723563 -72.78208879 201.13742969 -71.14453125 191.859375 C-70.87263023 190.29789796 -70.6010639 188.73636262 -70.32980347 187.17477417 C-69.5974477 182.96986041 -68.8573508 178.7663455 -68.11497498 174.56319046 C-67.65070327 171.93210948 -67.18843687 169.30068315 -66.72668457 166.66915894 C-61.87020684 139.0117945 -56.77866521 111.40138599 -51.52734375 83.81640625 C-51.36396263 82.95772823 -51.20058151 82.09905022 -51.03224945 81.21435165 C-49.94626886 75.50928134 -48.85561894 69.80511919 -47.76171875 64.1015625 C-47.6227203 63.37523495 -47.48372185 62.64890739 -47.34051132 61.90056992 C-45.92158126 54.49406684 -44.46609675 47.1044419 -42.77734375 39.75390625 C-45.32714561 40.94704394 -47.86614304 42.15744356 -50.40234375 43.37890625 C-51.11519531 43.71019531 -51.82804688 44.04148438 -52.5625 44.3828125 C-57.60582901 46.8350734 -61.00434405 49.60003592 -64.77734375 53.75390625 C-69.00779444 52.24096603 -70.94182856 49.15331937 -73.33984375 45.56640625 C-73.72591797 45.01404297 -74.11199219 44.46167969 -74.50976562 43.89257812 C-77.15760366 40.00878162 -79.28054692 36.22328906 -80.77734375 31.75390625 C-79.50009656 25.98569314 -73.86849423 21.62000269 -69.30078125 18.2890625 C-58.86776631 11.94204258 -46.7112931 10.52123294 -34.77734375 9.75390625 C-34.71546875 8.86703125 -34.65359375 7.98015625 -34.58984375 7.06640625 C-33.58738511 2.9794595 -31.93709861 1.45125796 -28.77734375 -1.24609375 C-21.13318156 -5.06817485 -7.73963572 -2.20372021 0 0 Z M-1.77734375 37.75390625 C-3.90004499 45.54008009 -5.21306696 53.46773914 -6.59765625 61.41015625 C-6.86359041 62.92334317 -7.12977898 64.4364854 -7.39620972 65.94958496 C-8.09247914 69.90776183 -8.7853184 73.86653147 -9.47741699 77.82543945 C-10.18597735 81.87487922 -10.89781889 85.92374201 -11.609375 89.97265625 C-13.00188893 97.89918219 -14.39077544 105.8263381 -15.77734375 113.75390625 C-14.03788476 113.61031641 -12.29877278 113.46251942 -10.55981445 113.31298828 C-9.59131058 113.23114288 -8.6228067 113.14929749 -7.62495422 113.06497192 C-3.61697289 112.62715031 0.16495147 111.73430336 4.03515625 110.62890625 C4.80069824 110.41153809 5.56624023 110.19416992 6.35498047 109.97021484 C19.24062682 106.12515298 32.32511031 100.1205376 39.25 87.984375 C42.02213976 81.62737981 43.07015079 74.8001844 41.16796875 68.0703125 C35.24559393 53.55804693 24.15892371 45.67969253 10.22265625 39.75390625 C6.13834369 38.33792732 2.5802368 37.75390625 -1.77734375 37.75390625 Z M132.13671875 89.21875 C125.98441184 100.52573089 119.67134122 115.09535648 123.09765625 128.06640625 C124.06132829 130.8453939 124.06132829 130.8453939 126.22265625 132.75390625 C129.39228484 132.90133084 131.40334362 132.39281977 133.92578125 130.42578125 C144.92787494 119.02721571 149.50660533 102.06275461 149.62109375 86.6640625 C149.16592913 83.33957585 148.2197745 81.43120245 146.22265625 78.75390625 C139.50758788 76.51555013 135.03137516 84.22607018 132.13671875 89.21875 Z M252.328125 99.375 C235.43746859 118.45924815 226.36609707 151.30711711 227.03515625 176.48046875 C227.58465463 183.14313659 228.84785234 188.50414156 233.22265625 193.75390625 C236.1702771 196.22353453 237.67939672 196.73340589 241.53515625 196.87890625 C247.70415012 194.99684032 251.47792239 191.50136071 254.921875 186.078125 C266.68611109 163.70533345 270.02068055 134.83108785 267.47265625 109.87890625 C267.36219971 108.7818335 267.36219971 108.7818335 267.24951172 107.66259766 C266.68881146 103.1801397 265.77336344 99.51102901 263.22265625 95.75390625 C258.09632434 93.57909877 255.98754415 95.8666263 252.328125 99.375 Z " fill="#000000" transform="translate(660.77734375,9.24609375)"/>
<path d="M0 0 C13.38113284 10.76087299 17.44976613 28.86869856 19.32763672 45.11376953 C21.87740317 70.11244751 15.4085371 96.48570615 -0.5625 116.12109375 C-12.8939736 130.65278878 -26.15994105 143.93737335 -41.4453125 155.33984375 C-43.24007201 156.73169807 -45.03218991 158.12697317 -46.8203125 159.52734375 C-48.02835232 160.46522194 -49.23655205 161.40289451 -50.4453125 162.33984375 C-49.9709375 163.24734375 -49.4965625 164.15484375 -49.0078125 165.08984375 C-45.08675067 174.36969009 -45.52924174 186.00352648 -49.21679688 195.28076172 C-53.37606707 204.77445384 -58.45717232 215.58534781 -67.4453125 221.33984375 C-73.53926119 221.98131203 -73.53926119 221.98131203 -76.1550293 220.12939453 C-77.89714391 217.7131788 -77.7059597 216.28333276 -77.52734375 213.33203125 C-77.49060547 212.34460938 -77.45386719 211.3571875 -77.41601562 210.33984375 C-77.31169837 208.27925605 -77.19479292 206.21926171 -77.06445312 204.16015625 C-76.8454493 197.52992295 -77.81238542 193.52945839 -81.65112305 188.08642578 C-83.88423569 185.91256705 -85.39037135 185.0183161 -88.4453125 184.33984375 C-91.43328757 185.23348954 -91.43328757 185.23348954 -94.46875 186.96875 C-95.0433345 187.26942886 -95.61791901 187.57010773 -96.20991516 187.87989807 C-98.08991975 188.8699175 -99.95473513 189.88543668 -101.8203125 190.90234375 C-103.12017257 191.5942097 -104.42071728 192.28479083 -105.72192383 192.97412109 C-114.85404405 197.83622468 -123.89729805 202.86794705 -132.85888672 208.03735352 C-148.99533351 217.33984375 -148.99533351 217.33984375 -152.4453125 217.33984375 C-152.4453125 213.70984375 -152.4453125 210.07984375 -152.4453125 206.33984375 C-153.84608032 206.97599609 -153.84608032 206.97599609 -155.27514648 207.625 C-158.72758119 209.19231497 -162.18112228 210.7571785 -165.63500977 212.32128906 C-167.1320597 212.99965252 -168.6288054 213.67868778 -170.12524414 214.35839844 C-172.27150846 215.33313351 -174.41884171 216.30547737 -176.56640625 217.27734375 C-177.23933212 217.58357666 -177.912258 217.88980957 -178.60557556 218.20532227 C-183.33144079 220.33984375 -183.33144079 220.33984375 -184.4453125 220.33984375 C-184.02461174 212.39005005 -183.1253268 204.58350023 -181.9453125 196.71484375 C-181.81471436 195.83795898 -181.68411621 194.96107422 -181.54956055 194.05761719 C-181.03101519 190.68559453 -180.52704907 187.58505347 -179.4453125 184.33984375 C-186.3753125 186.31984375 -186.3753125 186.31984375 -193.4453125 188.33984375 C-190.84083665 176.95837968 -187.16654558 165.98014834 -183.5078125 154.90234375 C-182.8804443 152.99557923 -182.25348846 151.08867898 -181.62695312 149.18164062 C-181.32155609 148.25217621 -181.01615906 147.32271179 -180.70150757 146.36508179 C-179.53755071 142.81464391 -178.38165249 139.26159631 -177.22491455 135.70880127 C-176.51316942 133.54603889 -175.78168755 131.39128667 -175.04248047 129.23779297 C-174.65850098 128.08424316 -174.27452148 126.93069336 -173.87890625 125.7421875 C-173.54818115 124.77659912 -173.21745605 123.81101074 -172.87670898 122.81616211 C-172.36373884 119.87159154 -172.78137421 118.77648341 -174.4453125 116.33984375 C-178.96029718 112.75441474 -184.06940612 111.67138082 -189.73046875 111.86328125 C-194.01304871 112.61504349 -197.72963403 114.49201942 -201.66796875 116.28125 C-205.54611674 117.75941893 -207.55634954 117.69252652 -211.4453125 116.33984375 C-213.90642083 112.64818125 -213.76901 111.05213074 -213.1640625 106.796875 C-211.78940042 102.09762255 -208.70603717 98.88670148 -205.4453125 95.33984375 C-204.70925781 94.50066406 -203.97320312 93.66148438 -203.21484375 92.796875 C-194.5476337 83.45099271 -183.99732871 77.15712556 -171.17578125 76.1640625 C-165.92548202 75.99412096 -161.51084297 77.00037504 -156.4453125 78.33984375 C-156.15922119 77.77700684 -155.87312988 77.21416992 -155.57836914 76.63427734 C-138.05344238 42.29815611 -115.58901093 6.69217362 -77.4453125 -6.66015625 C-51.70474743 -14.42444337 -22.99179362 -15.60944455 0 0 Z " fill="#832980" transform="translate(213.4453125,15.66015625)"/>
<path d="M0 0 C12.87298329 -0.76896139 24.64361828 3.18410694 36 9 C37.30138702 11.60277403 36.77370617 12.41549205 35.9543457 15.16845703 C35.58045967 16.46298294 35.58045967 16.46298294 35.19902039 17.78366089 C34.92322647 18.72388092 34.64743256 19.66410095 34.36328125 20.6328125 C31.25469985 31.61884426 28.88436359 42.66095916 26.75708008 53.87353516 C26.17820987 56.92395536 25.58714014 59.97182904 24.99414062 63.01953125 C24.61389436 64.98945047 24.23431152 66.95949789 23.85546875 68.9296875 C23.68258835 69.82557587 23.50970795 70.72146423 23.33158875 71.64450073 C22.36500049 76.7517371 21.58845734 81.83519259 21 87 C21.67804688 86.67386719 22.35609375 86.34773438 23.0546875 86.01171875 C35.05252748 80.37838391 48.50937001 75.44812362 61.87890625 79.15234375 C71.77795014 83.10831525 77.39259195 90.06782197 81.6875 99.5625 C92.71679195 128.16750234 86.99478884 160.99004413 74.94775391 188.39355469 C67.25775838 204.82611605 56.80946689 218.52383457 39.8359375 225.9921875 C33.13233885 228.37445809 27.07489677 229.38968583 20 229.375 C18.77083862 229.37258301 18.77083862 229.37258301 17.5168457 229.37011719 C5.46390862 229.13271261 -5.91801758 226.8175484 -14.875 218.25 C-15.57625 217.5075 -16.2775 216.765 -17 216 C-20.41437991 217.31228836 -23.63624609 218.80301712 -26.875 220.5 C-35.4251463 224.76249941 -44.37503841 227.08133436 -53.78515625 224.125 C-64.19910191 219.34997816 -68.55504632 211.21511095 -73 201 C-73.82468879 198.65945467 -74.44941688 196.42256574 -75 194 C-77.09271253 197.13906879 -78.29488297 200.12247279 -79.6875 203.625 C-83.90429786 213.77146554 -90.26341196 222.60735687 -100.2421875 227.6328125 C-110.13368431 231.23158992 -120.73347839 229.64464782 -130.1640625 225.4765625 C-140.3119251 220.19296462 -147.01432996 212.52432087 -151.17578125 201.84765625 C-162.93645229 161.21481651 -146.91178771 115.01454281 -133 77 C-125.16499114 76.78698427 -117.98161732 77.01253292 -110.375 78.9375 C-109.60027344 79.11990234 -108.82554687 79.30230469 -108.02734375 79.49023438 C-104.97243452 80.21822401 -101.98019515 81.00660162 -99 82 C-99.61178041 87.41350131 -100.48738546 92.68423968 -101.671875 98.00390625 C-102.00810073 99.54954389 -102.343856 101.09528393 -102.67919922 102.64111328 C-102.85416931 103.44357483 -103.0291394 104.24603638 -103.20941162 105.07281494 C-115.07271908 151.8609198 -115.07271908 151.8609198 -113 199 C-111.35 199.33 -109.7 199.66 -108 200 C-89.75895161 168.32872917 -85.64637439 126.28175894 -79.1862793 90.95483398 C-78.87771248 89.2753643 -78.87771248 89.2753643 -78.56291199 87.56196594 C-78.17421679 85.44130669 -77.78915044 83.31997828 -77.40815735 81.19792175 C-77.23672714 80.26136246 -77.06529694 79.32480316 -76.88867188 78.35986328 C-76.66624817 77.12733322 -76.66624817 77.12733322 -76.43933105 75.86990356 C-76 74 -76 74 -75 73 C-64.13442139 72.28750304 -54.96717089 75.26362449 -45.3125 80 C-44.25083618 80.51626953 -44.25083618 80.51626953 -43.16772461 81.04296875 C-38.12541254 83.62376238 -38.12541254 83.62376238 -37 87 C-37.38964844 89.48583984 -37.38964844 89.48583984 -38.109375 92.4609375 C-38.36823486 93.56244141 -38.62709473 94.66394531 -38.89379883 95.79882812 C-39.17634521 96.97896484 -39.4588916 98.15910156 -39.75 99.375 C-41.75487706 108.04911475 -43.59268399 116.67840837 -44.8125 125.5 C-44.92368164 126.30356934 -45.03486328 127.10713867 -45.14941406 127.93505859 C-50.03714722 165.00953305 -50.03714722 165.00953305 -38 199 C-35.1466315 199 -33.4811483 198.4667058 -31.42362976 196.47094727 C-27.20922441 191.20178589 -26.18089548 187.60188061 -26.51953125 180.9375 C-26.53649551 180.08165817 -26.55345978 179.22581635 -26.57093811 178.34403992 C-26.60847652 176.51295164 -26.65863511 174.68208536 -26.72039795 172.85165405 C-26.87735446 167.99198315 -26.91915356 163.13132559 -26.96484375 158.26953125 C-26.97541809 157.29844925 -26.98599243 156.32736725 -26.99688721 155.32685852 C-27.10090486 141.77325754 -25.7976447 128.43133826 -24 115 C-23.90525391 114.29004883 -23.81050781 113.58009766 -23.71289062 112.84863281 C-11.60194533 23.20389065 -11.60194533 23.20389065 0 0 Z M31 115 C18.4486772 134.43350769 11.79768658 159.21084862 11.5625 182.25 C11.55226807 182.99975098 11.54203613 183.74950195 11.53149414 184.52197266 C11.63467838 190.96846233 12.95751938 197.27669251 16.875 202.5 C19.47545686 204.33561661 20.79270296 205 24 205 C32.50459293 201.85015077 35.90363656 194.45925719 39.59765625 186.6015625 C48.29692777 166.09888622 54.38052318 136.85593575 48 115 C46.67506887 112.33966398 45.11569427 110.11569427 43 108 C37.1859024 106.63197703 34.21952015 110.78062887 31 115 Z " fill="#000000" transform="translate(1123,0)"/>
<path d="M0 0 C2.89214404 1.01684363 5.72600397 2.10428487 8.56640625 3.25390625 C8.57137147 4.12180849 8.57137147 4.12180849 8.576437 5.00724411 C8.65949398 19.42383034 8.7520807 33.84033669 8.85393333 48.25680161 C8.90299337 55.2299381 8.9493472 62.20306855 8.98828125 69.17626953 C9.15716323 99.12309346 9.51287247 129.04835349 10.5078125 158.98046875 C10.5479031 160.21279991 10.5879937 161.44513107 10.62929916 162.7148056 C11.30071905 182.9568845 12.55813952 203.10025458 14.56640625 223.25390625 C14.72085205 224.81963379 14.72085205 224.81963379 14.87841797 226.41699219 C15.10475593 228.69628308 15.3336777 230.97526068 15.56640625 233.25390625 C-16.27385071 232.12371353 -16.27385071 232.12371353 -27.93359375 223.37890625 C-31.11276462 218.87508085 -30.56535709 213.03795421 -30.57958984 207.71557617 C-30.58321722 206.6218957 -30.58321722 206.6218957 -30.58691788 205.50612068 C-30.59187163 203.1029907 -30.58784676 200.70000185 -30.58203125 198.296875 C-30.58120922 197.46142843 -30.58038719 196.62598186 -30.57954025 195.76521873 C-30.55115848 177.50729938 -29.93019146 159.28658462 -29.16211319 141.0470047 C-29.02089857 137.66313035 -28.88556563 134.27903018 -28.75022602 130.89491653 C-27.75477027 106.00985921 -26.68198784 81.12765413 -25.43359375 56.25390625 C-46.82747134 103.57183965 -68.79297372 152.20606967 -81.91552734 202.58789062 C-82.43359375 204.25390625 -82.43359375 204.25390625 -83.43359375 205.25390625 C-103.16453226 206.38761763 -103.16453226 206.38761763 -111.80859375 199.87890625 C-117.38115414 194.30634586 -117.20652678 187.17524998 -117.93359375 179.69140625 C-118.0610498 178.39436768 -118.18850586 177.0973291 -118.31982422 175.76098633 C-121.14089008 145.71856168 -121.65672786 115.40640825 -122.43359375 85.25390625 C-129.76165755 110.66230591 -136.60045085 136.19024868 -143.12109375 161.81640625 C-143.30404369 162.5352449 -143.48699364 163.25408356 -143.67548752 163.9947052 C-149.43777411 186.6621069 -154.83944251 209.38605118 -159.3820343 232.33410645 C-160.32726449 237.04124774 -160.32726449 237.04124774 -161.43359375 239.25390625 C-169.53348162 237.17479065 -176.81329019 233.92182076 -184.30859375 230.25390625 C-185.42234375 229.72023437 -186.53609375 229.1865625 -187.68359375 228.63671875 C-196.60541062 224.31554962 -196.60541062 224.31554962 -200.43359375 221.25390625 C-198.90436922 209.38207324 -196.23766877 197.78362509 -193.55859375 186.12890625 C-193.31849579 185.08222778 -193.07839783 184.03554932 -192.83102417 182.95715332 C-180.49867947 129.44392065 -165.8644974 72.76929635 -138.18359375 24.87890625 C-137.78325928 24.1825708 -137.3829248 23.48623535 -136.97045898 22.76879883 C-133.91356937 17.63933426 -131.08208958 13.16232752 -125.19921875 11.14453125 C-123.45898438 10.82742187 -123.45898438 10.82742187 -121.68359375 10.50390625 C-120.44738281 10.27574219 -119.21117187 10.04757813 -117.9375 9.8125 C-113.76563358 9.14741985 -109.65123613 8.51601962 -105.43359375 8.25390625 C-104.69753906 8.20105469 -103.96148437 8.14820313 -103.203125 8.09375 C-97.53944444 7.86954234 -92.59864062 8.87339839 -87.43359375 11.25390625 C-85.43359375 13.25390625 -85.43359375 13.25390625 -85.30697632 15.35986328 C-85.36471222 16.23497559 -85.42244812 17.11008789 -85.48193359 18.01171875 C-85.54212677 19.01316925 -85.60231995 20.01461975 -85.66433716 21.04641724 C-85.74030121 22.14613861 -85.81626526 23.24585999 -85.89453125 24.37890625 C-86.03858323 26.75892178 -86.18211468 29.13896885 -86.32519531 31.51904297 C-86.40451294 32.78037048 -86.48383057 34.041698 -86.56555176 35.34124756 C-87.88672492 56.61041014 -88.74388295 77.81323606 -88.68359375 99.12890625 C-88.68236511 100.17095215 -88.68113647 101.21299805 -88.67987061 102.28662109 C-88.6578517 112.64662104 -88.60499676 122.94828396 -87.43359375 133.25390625 C-86.77359375 133.25390625 -86.11359375 133.25390625 -85.43359375 133.25390625 C-85.32217041 132.26374512 -85.21074707 131.27358398 -85.09594727 130.25341797 C-84.49641626 126.09156878 -83.2323833 122.21606257 -81.8359375 118.26171875 C-81.57026474 117.49525024 -81.30459198 116.72878174 -81.03086853 115.93908691 C-80.15244467 113.41608107 -79.26288095 110.89721762 -78.37109375 108.37890625 C-78.06391418 107.50675476 -77.75673462 106.63460327 -77.44024658 105.73602295 C-35.92532196 -11.94519199 -35.92532196 -11.94519199 0 0 Z " fill="#000000" transform="translate(453.43359375,6.74609375)"/>
<path d="M0 0 C9.51386268 7.46373739 14.31193898 19.64339665 16.1953125 31.3203125 C16.33684574 32.69370914 16.46165033 34.06892501 16.5703125 35.4453125 C16.65152344 36.44304687 16.65152344 36.44304687 16.734375 37.4609375 C17.10462702 46.54894153 15.76352899 57.4529713 9.5703125 64.4453125 C5.40321789 66.52885981 1.75136243 65.81671185 -2.53515625 64.46875 C-5.87757151 63.21486349 -9.1559664 61.86831187 -12.4296875 60.4453125 C-13.59757812 59.96191406 -13.59757812 59.96191406 -14.7890625 59.46875 C-16.6796875 58.5703125 -16.6796875 58.5703125 -19.4296875 56.4453125 C-20.79095543 51.08491296 -20.20004825 47.80948322 -18.1171875 42.7578125 C-13.80587208 31.95651456 -13.80587208 31.95651456 -14.25390625 20.671875 C-15.24386576 18.25779084 -15.24386576 18.25779084 -17.6796875 17.3828125 C-21.59290635 17.47174929 -23.33685479 19.09460422 -26.4296875 21.4453125 C-42.08789555 39.76541592 -48.1350206 64.78439655 -46.4296875 88.4453125 C-45.16015865 98.16391707 -42.50067031 108.21221352 -34.81640625 114.8359375 C-28.76497681 119.10046842 -22.57309226 119.08230401 -15.4296875 118.4453125 C-12.37253369 117.57781245 -10.02271005 116.26478631 -7.4296875 114.4453125 C-6.77484375 113.99414062 -6.12 113.54296875 -5.4453125 113.078125 C4.21667261 105.55076451 8.99242622 94.53094696 12.46484375 83.1484375 C12.82964844 82.25640625 13.19445313 81.364375 13.5703125 80.4453125 C16.5703125 79.4453125 16.5703125 79.4453125 19.171875 80.59765625 C33.83705172 89.25655258 33.83705172 89.25655258 37.5703125 94.4453125 C39.38522398 101.51976337 34.98674807 108.99753707 31.65234375 115.046875 C22.5133039 129.96425712 7.41002945 140.5214964 -9.3046875 145.3203125 C-13.6642802 146.3561924 -17.95560862 147.16673778 -22.4296875 147.4453125 C-23.23664063 147.49816406 -24.04359375 147.55101562 -24.875 147.60546875 C-37.54345345 148.03021282 -51.02124529 145.35519332 -60.7421875 136.8828125 C-61.35707031 136.30402344 -61.97195313 135.72523438 -62.60546875 135.12890625 C-64.4578159 133.41935246 -66.39145938 131.92561504 -68.4296875 130.4453125 C-69.22890625 131.03699219 -70.028125 131.62867188 -70.8515625 132.23828125 C-84.97426294 142.47783464 -97.93113758 146.87559487 -115.4296875 145.4453125 C-122.46746511 144.0231288 -128.82798385 141.0905719 -133.4296875 135.4453125 C-140.38484467 124.05022796 -139.83311825 110.62235235 -139.8046875 97.7578125 C-139.80447601 96.87770508 -139.80426453 95.99759766 -139.80404663 95.09082031 C-139.72821507 63.29188124 -135.9818347 27.96291894 -123.4296875 -1.5546875 C-110.67044281 -0.28043967 -97.89835169 1.32752962 -86.4296875 7.4453125 C-87.06723962 14.90190032 -89.09656659 21.82105362 -91.1171875 29.0078125 C-105.25646006 74.56769723 -105.25646006 74.56769723 -99.8046875 119.6328125 C-99.3509375 120.2309375 -98.8971875 120.8290625 -98.4296875 121.4453125 C-94.90290144 121.15935687 -92.94564932 120.90715898 -90.26953125 118.51171875 C-88.25632052 115.86188696 -86.30668813 113.19364062 -84.4296875 110.4453125 C-83.87152344 109.66671875 -83.31335937 108.888125 -82.73828125 108.0859375 C-78.77761989 101.65390979 -79.52266037 96.81882928 -80.80078125 89.56640625 C-84.89575602 65.37518262 -79.1211773 37.33437445 -65.7421875 16.86328125 C-51.33901543 -2.70769561 -22.06669245 -14.11984501 0 0 Z " fill="#000000" transform="translate(1402.4296875,81.5546875)"/>
<path d="M0 0 C6.8671396 0.25926197 13.16882057 1.40354875 19.75 3.3125 C20.45825928 3.51319092 21.16651855 3.71388184 21.89624023 3.9206543 C26.70737081 5.37248734 30.71686842 7.37069541 35 10 C34.36731237 16.01004392 33.58794324 21.96564263 32.63916016 27.93310547 C32.36275901 29.70177219 32.08676853 31.47050311 31.81112671 33.23928833 C31.665406 34.17212772 31.51968529 35.10496712 31.3695488 36.06607437 C27.1040019 63.46859525 23.45643518 90.94608917 19.85736084 118.44268799 C18.57472531 128.23424619 17.28381581 138.02471993 15.99350739 147.81526947 C15.68206373 150.17893637 15.37081754 152.54262929 15.05977631 154.90634918 C12.46544687 174.61734361 9.78383601 194.31488812 7 214 C5.40202016 213.69163734 3.80464055 213.38016316 2.20751953 213.06738281 C1.31791534 212.89426575 0.42831116 212.72114868 -0.48825073 212.54278564 C-10.73750703 210.32793512 -21.17122616 204.94465491 -27 196 C-27.05859375 192.63208008 -27.05859375 192.63208008 -26.4375 188.76953125 C-26.33157028 188.06924805 -26.22564056 187.36896484 -26.11650085 186.64746094 C-25.7660231 184.36513701 -25.38334044 182.08951302 -25 179.8125 C-24.75281602 178.24276841 -24.50779477 176.67269478 -24.26489258 175.10229492 C-23.77039416 171.92807615 -23.26327495 168.75629907 -22.74462891 165.5859375 C-21.85637429 160.14721335 -21.03287884 154.6995716 -20.20898438 149.25073242 C-19.48813508 144.49805426 -18.74639983 139.74872362 -18 135 C-18.67804688 135.53109375 -19.35609375 136.0621875 -20.0546875 136.609375 C-29.67615155 143.91209286 -38.91173251 148.81329086 -51.27734375 147.81640625 C-60.5767326 146.23109743 -68.33051531 140.78023693 -74.24609375 133.5859375 C-88.92214916 111.94774445 -83.01599986 79.48028275 -78.68164062 55.53466797 C-75.24622934 37.72023941 -70.90019567 20.16027606 -65 3 C-34.98246677 5.31607363 -34.98246677 5.31607363 -27.21313477 11.06054688 C-25 14 -25 14 -25.27099609 17.8269043 C-25.65877989 19.33396399 -26.07860417 20.83300163 -26.5234375 22.32421875 C-26.73916412 23.13507431 -26.95489075 23.94592987 -27.17715454 24.78135681 C-27.64277997 26.52060231 -28.12146138 28.25639474 -28.61181641 29.98883057 C-29.89029069 34.50960315 -31.0740971 39.0553847 -32.2734375 43.59765625 C-32.51358582 44.49566956 -32.75373413 45.39368286 -33.00115967 46.31890869 C-35.73980495 56.6195448 -37.78102005 67.01676144 -39.57568359 77.52197266 C-39.94328708 79.66879393 -40.336056 81.80870534 -40.73828125 83.94921875 C-41.93122789 90.93647762 -42.22191874 97.86304276 -42.3125 104.9375 C-42.33030518 105.82671143 -42.34811035 106.71592285 -42.36645508 107.63208008 C-42.35964091 113.177242 -41.66814926 117.1062238 -39 122 C-37.12907319 123.23901711 -37.12907319 123.23901711 -35 123 C-29.48322161 120.92722199 -27.54762119 116.00879616 -25 111 C-23.32052614 107.10686148 -21.94040744 103.15440652 -20.625 99.125 C-20.24561279 97.96935547 -19.86622559 96.81371094 -19.4753418 95.62304688 C-9.6616718 64.63379835 -4.85609917 32.05918367 0 0 Z " fill="#000000" transform="translate(555,79)"/>
<path d="M0 0 C13.01337677 12.51392948 17.02337324 32.37110245 17.71484375 49.76953125 C17.76969744 55.49259992 17.5717903 61.06060092 16.5 66.6875 C10.90584104 66.14707211 6.46767468 64.64223019 1.375 62.3125 C0.68535156 62.00828125 -0.00429687 61.7040625 -0.71484375 61.390625 C-3.69744708 60.05615238 -6.44908236 58.72012256 -9.20703125 56.953125 C-11.88254798 55.47634916 -13.06350979 55.42712729 -16.0625 55.8125 C-16.99835938 55.92722656 -17.93421875 56.04195313 -18.8984375 56.16015625 C-20.68121094 56.42119141 -20.68121094 56.42119141 -22.5 56.6875 C-23.31243164 56.80464355 -24.12486328 56.92178711 -24.96191406 57.04248047 C-30.81340708 57.88943492 -36.65839253 58.77499027 -42.5 59.6875 C-41.89119619 62.40051894 -41.14649281 64.43693524 -39.9375 67 C-36.86100271 75.09285493 -37.22626356 85.68952192 -40.46484375 93.703125 C-45.10960646 102.60704747 -52.25769246 108.78519237 -61.5 112.6875 C-72.06974915 115.18806146 -80.98758086 113.89240858 -90.5 108.6875 C-97.71630702 104.1588306 -101.71888359 97.0593312 -104.875 89.3125 C-106.62567315 79.15859575 -105.86632906 70.33424552 -100.5625 61.4375 C-98.59153675 58.809549 -96.58827751 56.22326555 -94.5 53.6875 C-95.80710937 53.51734375 -95.80710937 53.51734375 -97.140625 53.34375 C-107.02132716 51.41356632 -116.03468971 45.28302431 -122.5 37.6875 C-124.40334325 34.4791417 -125.96141631 31.39988047 -126.5 27.6875 C-121.59784584 13.23459722 -102.46756657 2.18268982 -89.46533203 -4.36669922 C-62.66732692 -17.26303112 -24.1864243 -19.45029939 0 0 Z " fill="#94408E" transform="translate(215.5,17.3125)"/>
<path d="M0 0 C6.54427255 -0.28341338 11.41580373 0.39876203 17.5 2.75 C18.23468506 3.02150879 18.96937012 3.29301758 19.72631836 3.57275391 C24.91287639 5.51290867 29.99264572 7.63288707 35 10 C33.96810608 16.67786239 32.76351816 23.30607895 31.37109375 29.91796875 C18.15065607 92.94219695 9.43663184 157.34263977 5.25708008 221.61791992 C5 224 5 224 4 226 C-10.37440746 226.84693726 -20.6493914 222.95602637 -33 216 C-29.12179523 146.9461572 -17.57866936 78.1990725 -2.75 10.72265625 C-2.58688324 9.97833847 -2.42376648 9.23402069 -2.25570679 8.46714783 C-1.61577712 5.58771968 -0.93360212 2.80080636 0 0 Z " fill="#000000" transform="translate(1242,0)"/>
<path d="M0 0 C13.01337677 12.51392948 17.02337324 32.37110245 17.71484375 49.76953125 C17.76969744 55.49259992 17.5717903 61.06060092 16.5 66.6875 C11.19825816 66.14636614 6.74569684 64.82062397 1.875 62.625 C1.17914795 62.31409424 0.4832959 62.00318848 -0.23364258 61.68286133 C-29.7511746 48.15300913 -56.68550982 21.77369433 -69.5 -8.3125 C-69.17 -9.3025 -68.84 -10.2925 -68.5 -11.3125 C-45.78041013 -16.89275014 -18.70911044 -15.04553938 0 0 Z " fill="#C4C4C6" transform="translate(215.5,17.3125)"/>
<path d="M0 0 C0.66 0.46277344 1.32 0.92554687 2 1.40234375 C3.051875 2.10359375 4.10375 2.80484375 5.1875 3.52734375 C11.27786012 8.9738658 15.71122817 16.63205532 16.203125 24.7578125 C16.34342336 36.22720327 15.09809539 44.77650731 7 53.40234375 C-1.42009933 60.83085454 -9.54585275 63.8563255 -20.734375 63.74609375 C-29.12410166 62.86296463 -37.49681569 58.87667824 -43 52.40234375 C-49.58977317 43.16748762 -51.95816798 34.72346702 -51 23.40234375 C-49.10838855 14.34470059 -44.05288684 7.27262532 -37 1.40234375 C-26.3266783 -5.22110074 -10.95606236 -6.68097722 0 0 Z " fill="#22ADD7" transform="translate(161,67.59765625)"/>
<path d="M0 0 C0.5976416 0.751604 1.1952832 1.50320801 1.81103516 2.27758789 C4.58933718 5.73295771 7.4739271 9.08522336 10.375 12.4375 C11.20257813 13.40139648 11.20257813 13.40139648 12.046875 14.38476562 C14.7090832 17.46255328 17.37942864 20.3796997 20.3671875 23.14453125 C23.16103422 26.17465284 23.72537981 27.23690883 23.75 31.25 C23.65852021 35.09175783 23.65852021 35.09175783 26 38 C28.14530251 38.02788856 28.14530251 38.02788856 30.5703125 37.7734375 C36.73497478 37.65612077 40.07887093 40.00796806 44.875 43.625 C46.42854518 44.73183994 47.9858509 45.83342063 49.546875 46.9296875 C50.29904297 47.46045898 51.05121094 47.99123047 51.82617188 48.53808594 C56.28708418 51.53807952 61.09797901 53.80850826 66 56 C63.58768698 58.69785007 61.02598705 60.22790057 57.84375 61.92578125 C56.82023437 62.47556641 55.79671875 63.02535156 54.7421875 63.59179688 C53.67226562 64.15962891 52.60234375 64.72746094 51.5 65.3125 C49.40617336 66.43345061 47.31242298 67.55454366 45.21875 68.67578125 C44.19007812 69.22314941 43.16140625 69.77051758 42.1015625 70.33447266 C38.0964301 72.48521362 34.12669927 74.69812021 30.16210938 76.92260742 C28 78 28 78 26 78 C26 74.37 26 70.74 26 67 C24.59923218 67.63615234 24.59923218 67.63615234 23.17016602 68.28515625 C19.71773131 69.85247122 16.26419022 71.41733475 12.81030273 72.98144531 C11.3132528 73.65980877 9.8165071 74.33884403 8.32006836 75.01855469 C6.17380404 75.99328976 4.02647079 76.96563362 1.87890625 77.9375 C1.20598038 78.24373291 0.5330545 78.54996582 -0.16026306 78.86547852 C-4.88612829 81 -4.88612829 81 -6 81 C-5.57929924 73.0502063 -4.6800143 65.24365648 -3.5 57.375 C-3.36940186 56.49811523 -3.23880371 55.62123047 -3.10424805 54.71777344 C-2.58570269 51.34575078 -2.08173657 48.24520972 -1 45 C-5.62 46.32 -10.24 47.64 -15 49 C-12.53365756 38.37309293 -9.21831783 28.10599862 -5.8125 17.75 C-5.24766792 16.02225926 -4.68321199 14.2943955 -4.11914062 12.56640625 C-2.75042165 8.37617478 -1.37663903 4.18763579 0 0 Z " fill="#F6A63C" transform="translate(35,155)"/>
<path d="M0 0 C1.19367188 -0.01675781 2.38734375 -0.03351562 3.6171875 -0.05078125 C10.0005888 0.61030597 14.00320161 3.53989134 18.125 8.3125 C22.27428924 13.69536172 22.85894323 18.24775983 22.640625 25.015625 C21.71208856 30.95263072 18.96006576 35.75618171 14.49609375 39.78125 C8.02597081 44.32168715 0.71893711 44.05337191 -6.875 43.3125 C-12.60541964 41.25451648 -16.41999864 37.19014897 -19.875 32.3125 C-22.62096479 26.48215927 -23.00110893 20.25050969 -21.22265625 14.03125 C-17.18724019 5.02517123 -9.7220005 0.03136129 0 0 Z " fill="#000000" transform="translate(1297.875,29.6875)"/>
<path d="M0 0 C0.66 0.46277344 1.32 0.92554687 2 1.40234375 C3.051875 2.10359375 4.10375 2.80484375 5.1875 3.52734375 C11.27786012 8.9738658 15.71122817 16.63205532 16.203125 24.7578125 C16.34342336 36.22720327 15.09809539 44.77650731 7 53.40234375 C-1.42009933 60.83085454 -9.54585275 63.8563255 -20.734375 63.74609375 C-29.12410166 62.86296463 -37.49681569 58.87667824 -43 52.40234375 C-49.58977317 43.16748762 -51.95816798 34.72346702 -51 23.40234375 C-49.10838855 14.34470059 -44.05288684 7.27262532 -37 1.40234375 C-26.3266783 -5.22110074 -10.95606236 -6.68097722 0 0 Z M-38.45703125 12.4296875 C-43.06332046 18.31874079 -44.68284106 24.18392678 -44.390625 31.625 C-43.46747035 38.18862957 -40.85407129 44.80374989 -36 49.40234375 C-28.28922168 54.58520628 -22.38165936 57.34582507 -13 56.40234375 C-5.62349191 54.4870783 1.16994089 50.94942043 5.28125 44.34375 C9.39923894 36.32837867 10.44494752 28.34979622 7.8125 19.58984375 C4.96495719 12.1941423 -0.15906342 7.99455103 -7 4.40234375 C-18.85642874 0.45020084 -30.14871319 3.47495568 -38.45703125 12.4296875 Z " fill="#F9F9FB" transform="translate(161,67.59765625)"/>
<path d="M0 0 C0.47308594 1.00417969 0.94617188 2.00835937 1.43359375 3.04296875 C8.33490109 17.42939052 16.79097992 29.63130727 28 41 C28.80179688 41.8146875 29.60359375 42.629375 30.4296875 43.46875 C41.10259735 53.68674894 55.06939754 60.35646585 69 65 C69.4021875 63.9171875 69.4021875 63.9171875 69.8125 62.8125 C71 60 71 60 72.5625 57.5625 C74.17858838 54.68164679 74.62091968 52.26009076 75 49 C75.33 49 75.66 49 76 49 C77.36559211 58.9005428 77.87879196 69.13634219 76 79 C70.69825816 78.45886614 66.24569684 77.13312397 61.375 74.9375 C60.67914795 74.62659424 59.9832959 74.31568848 59.26635742 73.99536133 C29.7488254 60.46550913 2.81449018 34.08619433 -10 4 C-9.67 3.01 -9.34 2.02 -9 1 C-5.846632 0.29925156 -3.27275026 0 0 0 Z " fill="#A9ABAD" transform="translate(156,5)"/>
<path d="M0 0 C0.66 0 1.32 0 2 0 C3.5859375 1.609375 3.5859375 1.609375 5.375 3.75 C7.3102352 6.06421876 9.00138408 8.00109269 11.375 9.875 C13.73172924 12.9568767 13.57983578 15.95420437 13.7265625 19.7578125 C13.79086357 22.20173574 13.79086357 22.20173574 16 24 C17.3801165 23.85488045 18.75492178 23.65810581 20.125 23.4375 C28.6276113 23.124904 35.59288092 30.10324398 42 35 C33.48140496 42 33.48140496 42 29 42 C28.505 37.545 28.505 37.545 28 33 C26.9330188 33.49983398 26.9330188 33.49983398 25.84448242 34.00976562 C22.62821311 35.51242514 19.40794068 37.00630273 16.1875 38.5 C15.06794922 39.02464844 13.94839844 39.54929688 12.79492188 40.08984375 C11.72177734 40.58613281 10.64863281 41.08242187 9.54296875 41.59375 C8.0583313 42.28500977 8.0583313 42.28500977 6.54370117 42.99023438 C4 44 4 44 1 44 C0.83240643 37.74074462 1.45738308 31.86451591 2.4375 25.6875 C2.57220703 24.79482422 2.70691406 23.90214844 2.84570312 22.98242188 C3.37875415 19.52669106 3.89173899 16.32478302 5 13 C1.7 13.66 -1.6 14.32 -5 15 C-1.85714286 4.28571429 -1.85714286 4.28571429 0 0 Z " fill="#FDCF3A" transform="translate(45,169)"/>
<path d="M0 0 C2 2 2 2 2.5 4.8125 C2 8 2 8 -0.375 10.6875 C-7.16264375 15.62686517 -15.79555299 17.00217187 -24 16 C-28.42690462 14.91178097 -31.37978856 13.93031716 -34 10 C-33.84148939 6.90904313 -33.25903074 5.33873251 -31.375 2.875 C-22.08773515 -4.4570512 -10.37895932 -4.73426214 0 0 Z " fill="#A7D3E7" transform="translate(161,103)"/>
<path d="M0 0 C2.31 0 4.62 0 7 0 C7.49371094 1.21558594 7.98742188 2.43117188 8.49609375 3.68359375 C9.14309709 5.2682831 9.7902397 6.85291559 10.4375 8.4375 C10.76298828 9.23994141 11.08847656 10.04238281 11.42382812 10.86914062 C11.73642578 11.63291016 12.04902344 12.39667969 12.37109375 13.18359375 C12.65911865 13.89056396 12.94714355 14.59753418 13.24389648 15.32592773 C13.88053845 16.99832767 13.88053845 16.99832767 15 18 C15.49371094 16.78441406 15.98742188 15.56882812 16.49609375 14.31640625 C17.14309709 12.7317169 17.7902397 11.14708441 18.4375 9.5625 C18.76298828 8.76005859 19.08847656 7.95761719 19.42382812 7.13085938 C19.73642578 6.36708984 20.04902344 5.60332031 20.37109375 4.81640625 C20.65911865 4.10943604 20.94714355 3.40246582 21.24389648 2.67407227 C22 1 22 1 23 0 C24.98 0 26.96 0 29 0 C29 9.24 29 18.48 29 28 C27.35 28 25.7 28 24 28 C23.67 23.05 23.34 18.1 23 13 C21.02 17.95 19.04 22.9 17 28 C15.35 27.67 13.7 27.34 12 27 C10.60807733 24.55734179 9.65017567 22.53292923 8.6875 19.9375 C7.800625 17.648125 6.91375 15.35875 6 13 C5.67 17.95 5.34 22.9 5 28 C3.35 28 1.7 28 0 28 C0 18.76 0 9.52 0 0 Z " fill="#000000" transform="translate(1458,75)"/>
<path d="M0 0 C2.97431992 1.56965609 5.77893997 3.30188894 8.60546875 5.125 C16.28876117 9.97030956 24.53574969 14.92451184 33.60546875 16.375 C31.66796875 18.125 31.66796875 18.125 28.60546875 20.375 C27.99703125 20.83777344 27.38859375 21.30054688 26.76171875 21.77734375 C24.26809138 23.30794712 22.52385924 24.01971768 19.60546875 24.375 C8.82937907 21.20398109 -1.63703345 13.23314438 -10.39453125 6.375 C-10.39453125 5.715 -10.39453125 5.055 -10.39453125 4.375 C-8.8203125 3.015625 -8.8203125 3.015625 -6.70703125 1.625 C-6.02253906 1.15578125 -5.33804688 0.6865625 -4.6328125 0.203125 C-2.39453125 -0.625 -2.39453125 -0.625 0 0 Z " fill="#7F7F7F" transform="translate(81.39453125,187.625)"/>
<path d="M0 0 C0.33 0 0.66 0 1 0 C1.07541016 1.7325 1.07541016 1.7325 1.15234375 3.5 C1.81396346 8.72852166 4.33383052 11.9674637 7.5625 16 C8.10028076 16.69988037 8.63806152 17.39976074 9.19213867 18.12084961 C12.1598707 21.9194226 15.23240974 25.31883666 18.8125 28.5625 C21.98450413 31.55061983 21.98450413 31.55061983 22.125 35.625 C21.75375 36.73875 21.3825 37.8525 21 39 C20.4740625 40.7015625 20.4740625 40.7015625 19.9375 42.4375 C19.628125 43.283125 19.31875 44.12875 19 45 C18.505 44.34 18.01 43.68 17.5 43 C15.54707011 40.65648414 13.63103138 38.65693962 11.4375 36.5625 C7.73696135 32.86896995 4.28171847 29.01530984 0.9375 25 C0.43597412 24.43095947 -0.06555176 23.86191895 -0.58227539 23.27563477 C-2.52348698 20.88380304 -3.9253073 19.10849849 -4.13647461 15.97460938 C-3.9073726 13.91633551 -3.52568721 12.00202459 -3 10 C-2.75121094 9.0203125 -2.50242188 8.040625 -2.24609375 7.03125 C-1.97925781 6.1959375 -1.71242187 5.360625 -1.4375 4.5 C-1.16808594 3.6440625 -0.89867187 2.788125 -0.62109375 1.90625 C-0.31365234 0.96265625 -0.31365234 0.96265625 0 0 Z " fill="#807E7F" transform="translate(40,139)"/>
<path d="M0 0 C0.33 0 0.66 0 1 0 C2.36559211 9.9005428 2.87879196 20.13634219 1 30 C-4.55812289 29.45650689 -8.9939517 27.98787825 -14.0625 25.6875 C-14.74376953 25.39166016 -15.42503906 25.09582031 -16.12695312 24.79101562 C-20.40268487 22.8893213 -24.17849706 20.70068773 -28 18 C-27.67 17.34 -27.34 16.68 -27 16 C-24.6954948 15.36182933 -22.38503677 14.97962677 -20.03125 14.5625 C-19.3609375 14.376875 -18.690625 14.19125 -18 14 C-17.67 13.34 -17.34 12.68 -17 12 C-13.37 13.32 -9.74 14.64 -6 16 C-5.34 14.35 -4.68 12.7 -4 11 C-3.484375 10.195625 -2.96875 9.39125 -2.4375 8.5625 C-0.82141162 5.68164679 -0.37908032 3.26009076 0 0 Z " fill="#B4B4B8" transform="translate(231,54)"/>
<path d="M0 0 C1.31000977 -0.02416992 1.31000977 -0.02416992 2.64648438 -0.04882812 C9.83798724 -0.05419893 15.23288607 1.25942405 21.3125 5.3125 C20.9825 6.6325 20.6525 7.9525 20.3125 9.3125 C14.03682827 11.40439058 8.61967221 11.34946963 2.125 10.6875 C1.3530127 10.61805176 0.58102539 10.54860352 -0.21435547 10.47705078 C-5.37496967 9.87103166 -8.71188825 8.72379047 -12.6875 5.3125 C-12.6875 4.3225 -12.6875 3.3325 -12.6875 2.3125 C-8.47525373 -0.49566418 -4.95170394 -0.01787619 0 0 Z " fill="#E4E3E2" transform="translate(177.6875,8.6875)"/>
<path d="M0 0 C7.26 0 14.52 0 22 0 C22 1.65 22 3.3 22 5 C19.03 5 16.06 5 13 5 C13 12.59 13 20.18 13 28 C11.35 28 9.7 28 8 28 C8 20.41 8 12.82 8 5 C5.36 5 2.72 5 0 5 C0 3.35 0 1.7 0 0 Z " fill="#000000" transform="translate(1434,75)"/>
<path d="M0 0 C0.33 0 0.66 0 1 0 C1.18451025 14.78132118 1.18451025 14.78132118 0 21 C-5.45479185 20.43179252 -9.91059256 19.05362055 -15 17 C-14.02180976 15.68677212 -13.0424189 14.37443848 -12.0625 13.0625 C-11.51722656 12.33160156 -10.97195312 11.60070312 -10.41015625 10.84765625 C-9 9 -9 9 -8 8 C-5.30917128 8.17635452 -2.67148554 8.61835921 0 9 C0 6.03 0 3.06 0 0 Z " fill="#908797" transform="translate(232,63)"/>
<path d="M0 0 C0.33 0 0.66 0 1 0 C1 5.94 1 11.88 1 18 C-1.64 17.67 -4.28 17.34 -7 17 C-6.57847656 16.27554688 -6.15695313 15.55109375 -5.72265625 14.8046875 C-5.17480469 13.83789062 -4.62695312 12.87109375 -4.0625 11.875 C-3.51722656 10.92367187 -2.97195312 9.97234375 -2.41015625 8.9921875 C-0.97051473 5.93743568 -0.39132616 3.33865613 0 0 Z " fill="#ACA6B2" transform="translate(231,54)"/>
</svg>
